<svg width="24" height="24" viewBox="0 0 24 24" fill="none" xmlns="http://www.w3.org/2000/svg">
<path fill-rule="evenodd" clip-rule="evenodd" d="M11.7673 3.5293C7.21705 3.5293 3.52832 7.21802 3.52832 11.7683C3.52832 16.3186 7.21705 20.0073 11.7673 20.0073C16.3176 20.0073 20.0063 16.3186 20.0063 11.7683C20.0063 7.21802 16.3176 3.5293 11.7673 3.5293ZM2.02832 11.7683C2.02832 6.3896 6.38862 2.0293 11.7673 2.0293C17.146 2.0293 21.5063 6.3896 21.5063 11.7683C21.5063 17.147 17.146 21.5073 11.7673 21.5073C6.38862 21.5073 2.02832 17.147 2.02832 11.7683Z" fill="white"/>
<path fill-rule="evenodd" clip-rule="evenodd" d="M17.4875 17.9567C17.7801 17.6634 18.2549 17.6628 18.5482 17.9553L22.0722 21.4703C22.3655 21.7628 22.3661 22.2377 22.0736 22.531C21.781 22.8242 21.3062 22.8249 21.0129 22.5323L17.4889 19.0173C17.1956 18.7248 17.195 18.2499 17.4875 17.9567Z" fill="white"/>
</svg>
