<svg width="271" height="320" viewBox="0 0 271 320" fill="none" xmlns="http://www.w3.org/2000/svg">
<rect x="71" y="153" width="24" height="160" fill="#BADEFF"/>
<rect x="47" y="73" width="24" height="240" fill="#896BA7"/>
<rect x="159" y="215.667" width="24" height="97.3333" fill="#BADEFF"/>
<rect x="135" y="167" width="24" height="146" fill="#896BA7"/>
<rect x="247" y="104.333" width="24" height="208.667" fill="#BADEFF"/>
<rect x="223" width="24" height="313" fill="#896BA7"/>
<path d="M1.876 17H3.164V6.878H0.532V8.04H1.876V17ZM5.00238 11.834C5.00238 14.774 5.73038 17 8.53038 17C11.3164 17 12.0444 14.774 12.0444 11.834C12.0444 8.936 11.3164 6.724 8.53038 6.724C5.73038 6.724 5.00238 8.936 5.00238 11.834ZM10.7844 11.834C10.7844 14.018 10.5184 15.838 8.53038 15.838C6.52838 15.838 6.26238 14.018 6.26238 11.834C6.26238 9.734 6.52838 7.886 8.53038 7.886C10.5184 7.886 10.7844 9.734 10.7844 11.834ZM13.4434 11.834C13.4434 14.774 14.1714 17 16.9714 17C19.7574 17 20.4854 14.774 20.4854 11.834C20.4854 8.936 19.7574 6.724 16.9714 6.724C14.1714 6.724 13.4434 8.936 13.4434 11.834ZM19.2254 11.834C19.2254 14.018 18.9594 15.838 16.9714 15.838C14.9694 15.838 14.7034 14.018 14.7034 11.834C14.7034 9.734 14.9694 7.886 16.9714 7.886C18.9594 7.886 19.2254 9.734 19.2254 11.834Z" fill="#999FAE"/>
<path d="M2.716 85.736C1.582 86.072 0.84 86.996 0.84 88.27C0.84 90.104 2.282 91.28 4.41 91.28C6.552 91.28 8.008 90.104 8.008 88.27C8.008 87.01 7.266 86.086 6.118 85.736C7.112 85.344 7.742 84.504 7.742 83.412C7.742 81.942 6.608 80.724 4.41 80.724C2.212 80.724 1.092 81.928 1.092 83.412C1.092 84.546 1.68 85.33 2.716 85.736ZM4.41 85.316C3.178 85.316 2.324 84.63 2.324 83.58C2.324 82.39 3.164 81.788 4.41 81.788C5.684 81.788 6.51 82.404 6.51 83.566C6.51 84.616 5.656 85.316 4.41 85.316ZM4.41 86.296C5.74 86.296 6.748 86.926 6.748 88.228C6.748 89.404 5.852 90.216 4.41 90.216C2.968 90.216 2.058 89.418 2.058 88.228C2.058 86.884 3.108 86.296 4.41 86.296ZM9.35003 85.834C9.35003 88.774 10.078 91 12.878 91C15.664 91 16.392 88.774 16.392 85.834C16.392 82.936 15.664 80.724 12.878 80.724C10.078 80.724 9.35003 82.936 9.35003 85.834ZM15.132 85.834C15.132 88.018 14.866 89.838 12.878 89.838C10.876 89.838 10.61 88.018 10.61 85.834C10.61 83.734 10.876 81.886 12.878 81.886C14.866 81.886 15.132 83.734 15.132 85.834Z" fill="#999FAE"/>
<path d="M7.686 157.286C7.518 155.872 6.538 154.668 4.606 154.668C2.044 154.668 1.022 156.628 1.022 159.806C1.022 162.872 1.736 165.028 4.732 165.028C6.944 165.028 8.036 163.516 8.036 161.668C8.036 159.54 6.762 158.294 4.872 158.294C3.668 158.294 2.562 158.854 2.128 159.848C2.114 156.838 2.982 155.732 4.592 155.732C5.74 155.732 6.314 156.306 6.51 157.286H7.686ZM4.606 159.372C6.062 159.372 6.804 160.282 6.804 161.71C6.804 163.082 5.978 163.964 4.662 163.964C3.066 163.964 2.282 162.914 2.282 161.57C2.282 160.058 3.444 159.372 4.606 159.372ZM9.40472 159.834C9.40472 162.774 10.1327 165 12.9327 165C15.7187 165 16.4467 162.774 16.4467 159.834C16.4467 156.936 15.7187 154.724 12.9327 154.724C10.1327 154.724 9.40472 156.936 9.40472 159.834ZM15.1867 159.834C15.1867 162.018 14.9207 163.838 12.9327 163.838C10.9307 163.838 10.6647 162.018 10.6647 159.834C10.6647 157.734 10.9307 155.886 12.9327 155.886C14.9207 155.886 15.1867 157.734 15.1867 159.834Z" fill="#999FAE"/>
<path d="M5.74 239H7V236.746H8.4V235.64H7V228.976H5.474L0.56 235.78V236.746H5.74V239ZM2.03 235.64L5.796 230.306V235.64H2.03ZM9.32269 233.834C9.32269 236.774 10.0507 239 12.8507 239C15.6367 239 16.3647 236.774 16.3647 233.834C16.3647 230.936 15.6367 228.724 12.8507 228.724C10.0507 228.724 9.32269 230.936 9.32269 233.834ZM15.1047 233.834C15.1047 236.018 14.8387 237.838 12.8507 237.838C10.8487 237.838 10.5827 236.018 10.5827 233.834C10.5827 231.734 10.8487 229.886 12.8507 229.886C14.8387 229.886 15.1047 231.734 15.1047 233.834Z" fill="#999FAE"/>
<path d="M0.714 312.888H7.448V311.824H2.632C4.438 310.354 7.154 308.212 7.154 305.692C7.154 303.816 5.922 302.696 4.018 302.696C2.198 302.696 0.84 303.816 0.756 305.972H1.988C2.044 304.698 2.716 303.788 4.032 303.788C5.404 303.788 5.894 304.628 5.894 305.748C5.894 307.82 3.374 309.836 0.714 311.978V312.888ZM8.57073 307.834C8.57073 310.774 9.29873 313 12.0987 313C14.8847 313 15.6127 310.774 15.6127 307.834C15.6127 304.936 14.8847 302.724 12.0987 302.724C9.29873 302.724 8.57073 304.936 8.57073 307.834ZM14.3527 307.834C14.3527 310.018 14.0867 311.838 12.0987 311.838C10.0967 311.838 9.83073 310.018 9.83073 307.834C9.83073 305.734 10.0967 303.886 12.0987 303.886C14.0867 303.886 14.3527 305.734 14.3527 307.834Z" fill="#999FAE"/>
</svg>
