<svg width="146" height="42" viewBox="0 0 146 42" fill="none" xmlns="http://www.w3.org/2000/svg">
<g clip-path="url(#clip0_368_6859)">
<path d="M7.84 24.6653H3.072L2.208 27.1133H0.256L4.416 15.9933H6.512L10.656 27.1133H8.704L7.84 24.6653ZM7.328 23.2573L5.456 17.9773L3.584 23.2573H7.328ZM19.2162 18.1853C19.9842 18.1853 20.6669 18.3666 21.2642 18.7293C21.8723 19.0919 22.3469 19.6146 22.6883 20.2973C23.0296 20.9799 23.2002 21.7799 23.2002 22.6973C23.2002 23.6253 23.0296 24.4306 22.6883 25.1133C22.3469 25.7959 21.8723 26.3186 21.2642 26.6813C20.6669 27.0439 19.9842 27.2253 19.2162 27.2253C18.4162 27.2253 17.7336 27.0279 17.1682 26.6333C16.6029 26.2386 16.2082 25.7159 15.9842 25.0653V31.3053H14.1602V18.2973H15.9842V20.3453C16.2082 19.6946 16.6029 19.1719 17.1682 18.7773C17.7336 18.3826 18.4162 18.1853 19.2162 18.1853ZM18.6562 19.7853C18.1442 19.7853 17.6856 19.9079 17.2802 20.1533C16.8749 20.3879 16.5549 20.7293 16.3202 21.1773C16.0856 21.6146 15.9682 22.1213 15.9682 22.6973C15.9682 23.2839 16.0856 23.7959 16.3202 24.2333C16.5549 24.6706 16.8749 25.0119 17.2802 25.2573C17.6856 25.4919 18.1442 25.6093 18.6562 25.6093C19.4669 25.6093 20.1176 25.3533 20.6083 24.8413C21.0989 24.3186 21.3442 23.6039 21.3442 22.6973C21.3442 21.8013 21.0989 21.0919 20.6083 20.5693C20.1176 20.0466 19.4669 19.7853 18.6562 19.7853ZM25.9811 20.0253C26.2798 19.4493 26.7065 18.9959 27.2611 18.6653C27.8158 18.3239 28.4558 18.1533 29.1811 18.1533V20.1373H28.6371C27.8371 20.1373 27.1918 20.3346 26.7011 20.7293C26.2211 21.1133 25.9811 21.7533 25.9811 22.6493V27.1133H24.1571V18.2973H25.9811V20.0253ZM33.7797 18.1853C34.6331 18.1853 35.4011 18.3666 36.0837 18.7293C36.7664 19.0919 37.2997 19.6146 37.6837 20.2973C38.0677 20.9799 38.2597 21.7799 38.2597 22.6973C38.2597 23.6253 38.0677 24.4306 37.6837 25.1133C37.2997 25.7959 36.7664 26.3186 36.0837 26.6813C35.4011 27.0439 34.6331 27.2253 33.7797 27.2253C32.9264 27.2253 32.1584 27.0439 31.4757 26.6813C30.8037 26.3186 30.2704 25.7959 29.8757 25.1133C29.4917 24.4199 29.2997 23.6146 29.2997 22.6973C29.2997 21.7799 29.4917 20.9799 29.8757 20.2973C30.2704 19.6146 30.8037 19.0919 31.4757 18.7293C32.1584 18.3666 32.9264 18.1853 33.7797 18.1853ZM33.7797 19.7693C33.3104 19.7693 32.8784 19.8759 32.4837 20.0893C32.0891 20.3026 31.7691 20.6333 31.5237 21.0813C31.2891 21.5186 31.1717 22.0573 31.1717 22.6973C31.1717 23.3479 31.2891 23.8919 31.5237 24.3293C31.7691 24.7666 32.0891 25.0919 32.4837 25.3053C32.8784 25.5186 33.3104 25.6253 33.7797 25.6253C34.2491 25.6253 34.6811 25.5186 35.0757 25.3053C35.4704 25.0919 35.7851 24.7666 36.0197 24.3293C36.2651 23.8919 36.3877 23.3479 36.3877 22.6973C36.3877 22.0573 36.2651 21.5186 36.0197 21.0813C35.7851 20.6333 35.4704 20.3026 35.0757 20.0893C34.6811 19.8759 34.2491 19.7693 33.7797 19.7693ZM42.7494 18.1853C43.5494 18.1853 44.232 18.3826 44.7974 18.7773C45.3627 19.1719 45.7574 19.6946 45.9814 20.3453V15.2733H47.8214V27.1133H45.9814V25.0653C45.7574 25.7159 45.3627 26.2386 44.7974 26.6333C44.232 27.0279 43.5494 27.2253 42.7494 27.2253C41.9814 27.2253 41.2934 27.0439 40.6854 26.6813C40.088 26.3186 39.6187 25.7959 39.2774 25.1133C38.936 24.4306 38.7654 23.6253 38.7654 22.6973C38.7654 21.7799 38.936 20.9799 39.2774 20.2973C39.6187 19.6146 40.088 19.0919 40.6854 18.7293C41.2934 18.3666 41.9814 18.1853 42.7494 18.1853ZM43.3094 19.7853C42.4987 19.7853 41.848 20.0466 41.3574 20.5693C40.8774 21.0813 40.6374 21.7906 40.6374 22.6973C40.6374 23.6039 40.8774 24.3186 41.3574 24.8413C41.848 25.3533 42.4987 25.6093 43.3094 25.6093C43.8214 25.6093 44.28 25.4919 44.6854 25.2573C45.0907 25.0119 45.4107 24.6706 45.6454 24.2333C45.88 23.7959 45.9974 23.2839 45.9974 22.6973C45.9974 22.1213 45.88 21.6146 45.6454 21.1773C45.4107 20.7293 45.0907 20.3879 44.6854 20.1533C44.28 19.9079 43.8214 19.7853 43.3094 19.7853ZM57.3383 18.2973V27.1133H55.4983V25.1933C55.2743 25.8439 54.8849 26.3506 54.3303 26.7133C53.7756 27.0653 53.1303 27.2413 52.3943 27.2413C51.3703 27.2413 50.5489 26.9106 49.9303 26.2493C49.3116 25.5879 49.0023 24.6439 49.0023 23.4173V18.2973H50.8263V23.2253C50.8263 24.0253 51.0289 24.6439 51.4343 25.0813C51.8396 25.5079 52.3943 25.7213 53.0983 25.7213C53.8236 25.7213 54.4049 25.4866 54.8423 25.0173C55.2796 24.5479 55.4983 23.8653 55.4983 22.9693V18.2973H57.3383ZM62.6428 18.1853C63.7841 18.1853 64.7281 18.4893 65.4748 19.0973C66.2214 19.6946 66.6854 20.5106 66.8668 21.5453H64.9308C64.8241 20.9906 64.5628 20.5586 64.1468 20.2493C63.7414 19.9293 63.2294 19.7693 62.6108 19.7693C61.9068 19.7693 61.3201 20.0199 60.8508 20.5213C60.3814 21.0119 60.1468 21.7373 60.1468 22.6973C60.1468 23.6573 60.3814 24.3879 60.8508 24.8893C61.3201 25.3906 61.9068 25.6413 62.6108 25.6413C63.2294 25.6413 63.7414 25.4813 64.1468 25.1613C64.5628 24.8413 64.8241 24.4039 64.9308 23.8493H66.8668C66.6854 24.8839 66.2214 25.7053 65.4748 26.3133C64.7281 26.9213 63.7841 27.2253 62.6428 27.2253C61.7894 27.2253 61.0321 27.0439 60.3708 26.6813C59.7201 26.3186 59.2081 25.7959 58.8348 25.1133C58.4614 24.4306 58.2748 23.6253 58.2748 22.6973C58.2748 21.7799 58.4614 20.9799 58.8348 20.2973C59.2081 19.6146 59.7201 19.0919 60.3708 18.7293C61.0321 18.3666 61.7894 18.1853 62.6428 18.1853ZM72.261 25.5293V27.1133H71.141C70.2023 27.1133 69.4877 26.8893 68.997 26.4413C68.517 25.9826 68.277 25.2253 68.277 24.1693V19.8493H67.013V18.2973H68.277V16.1053H70.117V18.2973H72.245V19.8493H70.117V24.2013C70.117 24.7026 70.2077 25.0493 70.389 25.2413C70.581 25.4333 70.9117 25.5293 71.381 25.5293H72.261ZM81.1756 18.1853C81.9436 18.1853 82.6263 18.3666 83.2236 18.7293C83.8316 19.0919 84.3063 19.6146 84.6476 20.2973C84.989 20.9799 85.1596 21.7799 85.1596 22.6973C85.1596 23.6253 84.989 24.4306 84.6476 25.1133C84.3063 25.7959 83.8316 26.3186 83.2236 26.6813C82.6263 27.0439 81.9436 27.2253 81.1756 27.2253C80.3756 27.2253 79.693 27.0279 79.1276 26.6333C78.5623 26.2386 78.1676 25.7159 77.9436 25.0653V27.1133H76.1196V15.2733H77.9436V20.3453C78.1676 19.6946 78.5623 19.1719 79.1276 18.7773C79.693 18.3826 80.3756 18.1853 81.1756 18.1853ZM80.6156 19.7853C80.1036 19.7853 79.645 19.9079 79.2396 20.1533C78.8343 20.3879 78.5143 20.7293 78.2796 21.1773C78.045 21.6146 77.9276 22.1213 77.9276 22.6973C77.9276 23.2839 78.045 23.7959 78.2796 24.2333C78.5143 24.6706 78.8343 25.0119 79.2396 25.2573C79.645 25.4919 80.1036 25.6093 80.6156 25.6093C81.4263 25.6093 82.077 25.3533 82.5676 24.8413C83.0583 24.3186 83.3036 23.6039 83.3036 22.6973C83.3036 21.8013 83.0583 21.0919 82.5676 20.5693C82.077 20.0466 81.4263 19.7853 80.6156 19.7853ZM87.1565 18.2973L89.7965 24.7773L92.2445 18.2973H94.2765L88.9485 31.3053H86.9165L88.8205 26.9053L85.1085 18.2973H87.1565Z" fill="#999FAE"/>
<path fill-rule="evenodd" clip-rule="evenodd" d="M120.197 5.23466C121.945 4.28376 124.055 4.28376 125.803 5.23466L135.937 10.7474C137.825 11.7745 139 13.752 139 15.9016V26.3347C139 28.4843 137.825 30.4618 135.937 31.4889L125.803 37.0016C124.055 37.9525 121.945 37.9525 120.197 37.0016L110.063 31.4889C108.175 30.4618 107 28.4843 107 26.3347V15.9016C107 13.752 108.175 11.7745 110.063 10.7474L120.197 5.23466Z" fill="#2B3036"/>
<path fill-rule="evenodd" clip-rule="evenodd" d="M125.7 17.0756V21.1273C125.7 24.6964 123.786 26.4473 120.762 26.4473C117.738 26.4473 115.889 24.6796 115.889 21.2115V17.0756C115.889 16.3517 116.436 15.7793 117.127 15.7793C117.819 15.7793 118.366 16.3517 118.366 17.0756V21.1442C118.366 23.0634 119.282 24.0567 120.794 24.0567C122.306 24.0567 123.223 23.0971 123.223 21.2283V17.0756C123.223 16.3517 123.77 15.7793 124.461 15.7793C125.153 15.7793 125.7 16.3517 125.7 17.0756ZM128.872 26.3631C128.181 26.3631 127.634 25.7907 127.634 25.0668V17.0756C127.634 16.3517 128.181 15.7793 128.872 15.7793C129.564 15.7793 130.111 16.3517 130.111 17.0756V25.0668C130.111 25.7907 129.564 26.3631 128.872 26.3631Z" fill="white"/>
<path fill-rule="evenodd" clip-rule="evenodd" d="M138.553 19.523C142.725 19.523 146.107 16.0979 146.107 11.8728C146.107 7.64775 142.725 4.22266 138.553 4.22266C134.382 4.22266 131 7.64775 131 11.8728C131 16.0979 134.382 19.523 138.553 19.523Z" fill="#2D68FF"/>
<path fill-rule="evenodd" clip-rule="evenodd" d="M138.555 14.89C139.831 14.89 140.777 14.2331 140.777 13.1095V13.0922C140.777 12.3749 140.432 11.9859 139.847 11.6661C140.292 11.3809 140.58 10.992 140.58 10.3437V10.3265C140.58 9.39301 139.773 8.66699 138.555 8.66699C137.337 8.66699 136.531 9.40165 136.531 10.3265V10.3437C136.531 10.992 136.819 11.3809 137.263 11.6661C136.654 11.96 136.333 12.3921 136.333 13.1268V13.1441C136.333 14.1985 137.28 14.89 138.555 14.89ZM138.555 11.2253C138.053 11.2253 137.732 10.9055 137.732 10.482V10.4647C137.732 10.0931 138.037 9.76466 138.555 9.76466C139.074 9.76466 139.378 10.1017 139.378 10.4734V10.4907C139.378 10.9142 139.057 11.2253 138.555 11.2253ZM137.559 13.0404C137.559 13.4552 137.93 13.7923 138.555 13.7923C139.181 13.7923 139.551 13.4639 139.551 13.0404V13.0231C139.551 12.5564 139.131 12.2798 138.555 12.2798C137.979 12.2798 137.559 12.5564 137.559 13.0231V13.0404Z" fill="white"/>
</g>
<defs>
<clipPath id="clip0_368_6859">
<rect width="146" height="42" fill="white"/>
</clipPath>
</defs>
</svg>
